<svg width="72" height="72" viewBox="0 0 72 72" fill="none" xmlns="http://www.w3.org/2000/svg">
<path d="M36 0C16.119 0 0 16.119 0 36C0 55.881 16.119 72 36 72C55.881 72 72 55.881 72 36C72 16.119 55.881 0 36 0ZM56.121 29.121L33.441 51.801C32.877 52.365 32.115 52.68 31.32 52.68C30.525 52.68 29.76 52.365 29.199 51.801L18.84 41.442C17.667 40.269 17.667 38.373 18.84 37.2C20.013 36.027 21.909 36.027 23.082 37.2L31.32 45.438L51.879 24.879C53.052 23.706 54.948 23.706 56.121 24.879C57.294 26.052 57.294 27.948 56.121 29.121Z" fill="#209D2F"/>
</svg>
